<svg xmlns="http://www.w3.org/2000/svg" viewBox="0 0 241.69 378.13"><path fill="#333" d="M176.12,140.15c0.32-1.15.72-2.28,0.94-3.44a42.12,42.12,0,0,1,15.74-25.83,2.76,2.76,0,0,1,.57-0.23c0.48,0.43,1,.88,1.53,1.37q19.11,18.21,38.2,36.43c1.27,1.21,2.37,2.59,3.55,3.9a6.3,6.3,0,0,0,3.82,2.48c2.48-9.44,4.51-19,6.73-28.52s4.5-19.12,6.78-28.8c0.84-.05,1.54-0.12,2.24-0.13l36.94-.46c7.52-.1,15-0.43,22.55-0.28,6.54,0.13,13.11.21,19.55,1.7,18.17,4.21,29.72,19,30.1,36.76,0.34,16.32-6.81,28.61-20.09,37.53-3.29,2.21-7.06,3.7-10.64,5.47a18.53,18.53,0,0,1-2.78.83c0.2-2,.39-3.71.53-5.43a43.63,43.63,0,0,0-.7-14.54,21.89,21.89,0,0,0-.7-2.29c-2-5.45-6-8.32-11.77-8.71-2.71-.18-5.44-0.12-8.15-0.2-0.86,0-1.72-.12-2.79-0.2v-13c1.15-.07,2.24-0.17,3.33-0.2,5.54-.16,11.06.1,16.34,1.95a34.22,34.22,0,0,1,6.87,3.32,18.08,18.08,0,0,1,7.66,9.55,13.34,13.34,0,0,0,3,5.56A25.14,25.14,0,0,0,351,143.89c2.13-9,.49-17.18-5.28-24.39a23.57,23.57,0,0,0-17.61-9.07c-6.86-.4-13.74-0.37-20.61-0.36-5.92,0-11.83.27-17.75,0.39-8,.16-16,0.28-24,0.42-0.31,0-.63.06-1.1,0.11-0.22.73-.5,1.46-0.68,2.21q-6.15,26.75-12.27,53.5A102.47,102.47,0,0,0,249,189.25a48.44,48.44,0,0,0,10.92,31.53c3.82,4.71,8.06,9.09,12.3,13.44q15,15.38,30.16,30.58,31.47,31.65,63,63.22c3.62,3.62,7.5,7,11.27,10.43,0.52,0.48,1.1.91,1.81,1.5a18.09,18.09,0,0,0,1.25-1.76c3.61-6.67,4.41-13.66,1.85-20.82a24,24,0,0,0-3.66-6.12,25.06,25.06,0,0,0-4.24-4.22c-6.86-5.57-12.81-12-18.68-18.6-3.78-4.23-7.88-8.17-11.88-12.2q-10.22-10.31-20.49-20.57c-0.39-.39-0.72-0.83-1.08-1.25l7.84-11c2.09,2.22,4,4.34,6,6.33s3.6,4.27,6.89,5c0-3.52.05-6.71,0-9.89-0.11-5.51-.18-11-0.51-16.53a38.55,38.55,0,0,0-1.43-7.51,22.63,22.63,0,0,0-8.71-12.57,71.39,71.39,0,0,0-11.68-6.59c-4.17-2-8.31-4.1-12.45-6.18-0.71-.36-1.37-0.83-2.07-1.21-11.5-6.32-17.2-16.49-19.37-29a131,131,0,0,1-1.49-21.5c0-2.87,0-5.73,0-8.73,4.53-1,8.89-.29,13.45-0.47,0,1,.1,1.89.12,2.74,0.12,6.16.16,12.31,0.36,18.47a47.48,47.48,0,0,0,2.38,13.65A22.51,22.51,0,0,0,310,181.57a99.72,99.72,0,0,0,10.3,5.61c4.24,2.05,8.63,3.8,12.91,5.79a30.16,30.16,0,0,1,10.84,8.15,13.93,13.93,0,0,0,5,4.05c0.93-1.22,1.89-2.37,2.73-3.6,1.7-2.52,3.35-5.07,5-7.63,5.57-8.66,13.61-13.27,23.71-14.5,12.59-1.54,24.49.87,35.84,6.33a16,16,0,0,1,1.49.95c-0.41.8-.71,1.53-1.13,2.19-1.43,2.22-2.83,4.46-4.36,6.6-6.92,9.7-13.93,19.34-20.82,29.06q-16,22.51-31.81,45.09c-0.51.72-1,1.45-1.6,2.34,1.52,1.56,3,3.1,4.5,4.63,7.92,8,15.69,16.21,23.79,24.06,9.75,9.45,11.9,20.84,9,33.49A44.55,44.55,0,0,1,380,359c-0.55.45-1.15,0.84-1.65,1.21l-48.7-48.44c-4.28,5.49-8.44,10.58-11.94,16.38,0.89,0.49,1.64.92,2.4,1.32a64.36,64.36,0,0,1,15.56,11.12c8.43,8.34,13.25,18.49,15.16,30.11a70.8,70.8,0,0,1,.91,14.81,5.88,5.88,0,0,0,1.21,4c1.61,2.19,3,4.56,4.58,6.75,1.32,1.78,2.87,3.4,4.21,5,2.91-.58,5.46-1.23,8.06-1.57a33.11,33.11,0,0,1,16.48,2c7.39,2.84,16.07,13,16,22.77a119.77,119.77,0,0,1-.54,12.91c-0.47,3.93-2.83,7.07-5.7,9.75a6.65,6.65,0,0,1-4.59,1.78c-2.32,0-4.64-.08-7-0.09-6.15,0-12.3-.08-18.46-0.06s-12.32.11-18.47,0.25a3.71,3.71,0,0,1-2.85-1.47c-5.31-5.33-10.58-10.69-15.92-16-7.38-7.32-14.83-14.58-22.2-21.91-1.53-1.52-2.91-3.18-4.29-4.84a3.26,3.26,0,0,1-.21-4,33.39,33.39,0,0,0,3.74-17.84c-0.43-7.19-5-12.25-12.26-13.7-5.08-1-5.29-1-8.4,3.15s-6.14,8.59-9.22,12.88c-2.9,4-5.85,8-9.92,11a11,11,0,0,0-2,2.06,3.32,3.32,0,0,0-.65,3.14c2.34,8.3,4.64,16.62,7,24.92a16.2,16.2,0,0,0,.66,1.64,9.6,9.6,0,0,0,1.19,0c14.38-1.87,26.36,6.68,29.15,21a34,34,0,0,1-4.91,25.79H236.9c-0.25-.83-0.54-1.65-0.75-2.47q-7.7-29.95-15.39-59.89c-1.57-6.11-3.21-12.21-4.72-18.34-0.78-3.18-1.38-6.4-2-9.62a16.26,16.26,0,0,0-3.7-8.19c-5-5.51-5.26-11.82-2.75-18.37a33.59,33.59,0,0,1,4.3-7.45c6.66-9.2,13.46-18.3,20.18-27.45a57,57,0,0,0,3.89-5.76c3-5.27,3.46-12.22-1.54-17.86-1.64-1.85-3.36-3.65-5.1-5.41-5.3-5.34-10.65-10.62-15.94-16-1.91-1.93-3.71-4-5.58-5.95a17.56,17.56,0,0,0-5.42-4.41,24.12,24.12,0,0,0-.73,6.18,28,28,0,0,0,4.55,15.42,58,58,0,0,0,8.46,9.78q4.73,4.6,9.39,9.26c0.66,0.66,1.21,1.45,1.92,2.31l-7.64,10.41c-3-2.8-5.85-5.38-8.66-8a100.43,100.43,0,0,1-13.25-14.18c-5.9-8.07-9.12-17-8.69-27.09,0.44-10.33,5.15-18.59,12.86-25.61,1.53,1.3,3.06,2.44,4.4,3.77q11.5,11.41,22.91,22.9c5.12,5.17,10.17,10.41,15.22,15.66a30.86,30.86,0,0,1,7.18,11,26.24,26.24,0,0,1-.54,19c-2.15,5.5-5.51,10.26-8.94,15-3.75,5.18-7.39,10.44-11.1,15.64-2,2.8-4.11,5.52-6.06,8.34a32.73,32.73,0,0,0-3.29,5.54c-1.14,2.67-.46,5.06,1.44,6.5,2.12,1.6,5.62,1.83,7.64.19a21.57,21.57,0,0,0,3.91-4.18c4.09-5.73,8-11.6,12.07-17.32,5.74-8,11.59-15.9,17.45-23.79,2.8-3.78,5-7.74,5.54-12.55a23.44,23.44,0,0,0-2-11.91c-2.26-5.32-5.87-9.67-9.92-13.71q-32-32-64-64a67.23,67.23,0,0,1-9.39-11.5c-7.39-11.69-8.39-23.89-2.92-36.61,0.57-1.32,1.21-2.61,1.85-3.9s1.33-2.54,2-3.87c-0.47-.76-0.92-1.51-1.38-2.26A40,40,0,0,1,177,149.11a18.55,18.55,0,0,0-.87-2.72v-6.24Zm85.17,304c-0.38-1-.86-2-1.16-3.07-1.94-6.75-4-13.49-5.74-20.29-1.9-7.26-3.49-14.6-5.35-21.88-1.21-4.74-1.32-4.71,2.49-7.75,0.44-.35.87-0.71,1.33-1a36.72,36.72,0,0,0,7.94-7.61c3.42-4.43,6.67-9,10-13.48q4.63-6.27,9.27-12.53a3.51,3.51,0,0,1,2.76-1.66c7.87-.36,15.49.59,22.52,4.45A25,25,0,0,1,317.46,373c2.7,7.59,3.27,15.3.38,23-1.12,3-.55,5.29,1.82,7.28,1,0.82,2,1.63,2.93,2.48,1.26,1.11,2.54,2.2,3.72,3.39q12,12.13,23.87,24.31a4.48,4.48,0,0,0,3.54,1.52c10.72-.07,21.44,0,32.15,0,0.7,0,1.4-.09,2.18-0.14a21.86,21.86,0,0,0,.24-11.46c-1.5-6.08-5.65-9.65-11.93-9.94a30.24,30.24,0,0,0-8.3.75c-3.86.92-7.59,2.36-12,3.77-0.16-.24-0.54-0.85-1-1.42-1.45-1.91-3-3.74-4.35-5.72-3.84-5.61-7.56-11.3-11.42-16.89a5.1,5.1,0,0,1-1-3.53,63.59,63.59,0,0,0-.41-15.3c-1.57-9.66-5.49-18.15-12.49-25.11s-15.58-11-25-13.43c-1.52-.38-3.06-0.71-4.81-1.12,7.3-11.65,16.52-21.66,23.32-33.25-3.57-5.34-18.95-20.86-21.85-22.1a1,1,0,0,0-.23.38c0,0.72-.06,1.44-0.05,2.16a51.3,51.3,0,0,1-3.93,19.86,76.35,76.35,0,0,1-8.59,15.49c-3.65,5.16-7.45,10.2-11.16,15.32q-14.29,19.72-28.57,39.44a56.38,56.38,0,0,1-4.12,5,20.93,20.93,0,0,1-10.75,6.43,15.81,15.81,0,0,0-1.81.68L246.88,461a6,6,0,0,0,.91.17c11.36,0,22.71,0,34.07,0,2,0,3.94-.31,6-0.48,0.31-1.44.63-2.68,0.84-3.93,1.1-6.46-1.94-11.56-8.15-13.66a23.17,23.17,0,0,0-11.37-.75C266.56,442.76,264,443.49,261.29,444.13ZM279.81,295.5l0.56,0.05a38.69,38.69,0,0,0,1.78-4.38,36.05,36.05,0,0,0-.25-19.64c-1.91-6.78-5.73-12.48-10.41-17.6q-7.28-8-14.93-15.6-24.85-24.87-49.84-49.6c-3.58-3.54-7.35-6.9-11.08-10.28-1.41-1.28-1.8-1.18-2.75.41a16.71,16.71,0,0,0-2.27,8.24c-0.29,9.23,2.51,17.1,9.32,23.74,17.4,17,34.55,34.23,51.79,51.38,4.71,4.68,9.33,9.45,14.07,14.1C271.51,281.95,277.24,287.55,279.81,295.5Zm-44-98.53a3.66,3.66,0,0,0,.15-0.87,58.52,58.52,0,0,1,.9-19.3,8,8,0,0,0-2.68-8.21c-0.67-.57-1.28-1.21-1.93-1.8-2.32-2.08-4.74-4.06-6.94-6.26-7.7-7.67-15.32-15.42-23-23.13q-3.13-3.15-6.34-6.21c-1.19-1.14-1.81-1.16-2.68.21a18.34,18.34,0,0,0-2.25,4.71,28.53,28.53,0,0,0-.28,12.82c1,5.63,4.25,9.86,8.25,13.71q16.84,16.21,33.59,32.52A4.68,4.68,0,0,0,235.82,197Zm160.89-3.22a6.67,6.67,0,0,0-1.15-.61,32.88,32.88,0,0,0-15.18-.38,17.75,17.75,0,0,0-11.08,7c-1,1.43-2.13,2.8-3.14,4.23-3.56,5-7.11,10-10.62,15.09a3.51,3.51,0,0,0-.55,2c0.17,7.43.39,14.85,0.6,22.28,0.06,2.28.12,4.55,0.17,6.83l0.52,0.22a23.73,23.73,0,0,0,2-2.17c3.65-5.15,7.23-10.35,10.9-15.49,7.4-10.33,14.86-20.61,22.25-30.94C393.25,199.19,394.91,196.48,396.71,193.74Z" transform="translate(-176.12 -96.58)"/></svg>
